<?xml version="1.0" standalone="no"?>
<!DOCTYPE svg PUBLIC "-//W3C//DTD SVG 20010904//EN"
 "http://www.w3.org/TR/2001/REC-SVG-20010904/DTD/svg10.dtd">
<svg version="1.0" xmlns="http://www.w3.org/2000/svg"
 width="12035.000000pt" height="3310.000000pt" viewBox="0 0 12035.000000 3310.000000"
 preserveAspectRatio="xMidYMid meet">

<g transform="translate(0.000000,3310.000000) scale(0.100000,-0.100000)"
fill="#000000" stroke="none">
<path d="M36638 32083 l-2758 -3 0 -4037 c0 -3423 2 -4035 14 -4023 113 121
7106 8053 7106 8061 0 5 -326 8 -802 7 -442 -2 -2044 -4 -3560 -5z"/>
<path d="M25570 32047 l0 -24 -962 -6 c-529 -4 -3473 -7 -6542 -7 l-5581 0
-6223 -479 c-3423 -264 -6225 -481 -6226 -483 -8 -10 -26 -4089 -24 -5398 2
-844 4 -1340 5 -1102 2 237 7 432 11 432 4 0 1155 -392 2557 -871 l2550 -871
150 -23 c142 -22 179 -33 707 -213 359 -123 584 -195 630 -201 47 -7 278 -81
655 -210 354 -122 604 -202 640 -206 33 -4 206 -57 395 -121 325 -111 339
-114 380 -104 114 31 1135 321 1151 328 15 6 -9 26 -120 103 -76 52 -745 513
-1488 1024 -742 511 -1354 934 -1360 941 -5 6 -185 132 -400 279 -214 147
-394 274 -398 281 -4 8 -13 14 -19 14 -11 0 -157 96 -168 110 -3 4 -14 12 -25
18 -19 10 -200 133 -744 508 l-231 158 20 21 20 21 -97 40 c-54 21 -104 38
-110 38 -7 -1 -10 2 -7 7 3 5 -1 9 -9 9 -12 0 -407 267 -797 538 l-95 66 85
18 c563 115 7315 1477 8980 1811 l855 171 180 -51 c99 -28 279 -74 400 -103
121 -29 222 -55 225 -57 2 -2 -1 -7 -7 -11 -6 -4 212 -72 485 -151 274 -79
503 -146 510 -148 9 -4 12 28 12 137 l0 143 35 48 c19 27 35 51 35 54 0 3 18
30 40 60 l40 54 0 205 c0 186 2 205 18 210 18 6 683 141 2247 457 517 105
2441 491 4275 859 l3335 668 3 -417 2 -418 30 5 c23 3 30 0 30 -13 0 -13 6
-16 25 -13 21 4 25 1 25 -19 0 -24 2 -25 55 -21 35 2 55 -1 55 -8 0 -6 13 -9
30 -6 23 3 30 0 30 -12 0 -10 9 -16 25 -16 14 0 25 -5 25 -10 0 -6 11 -8 25
-4 19 5 25 2 25 -10 0 -12 7 -14 30 -9 23 4 30 2 30 -11 0 -10 9 -16 25 -16
14 0 25 -4 25 -10 0 -5 13 -7 30 -3 24 4 30 2 30 -12 0 -15 7 -16 55 -10 55 6
55 6 55 -20 0 -24 3 -26 25 -21 19 5 25 2 25 -10 0 -12 6 -14 30 -9 24 5 30 3
30 -10 0 -13 6 -16 25 -11 22 6 25 3 25 -24 0 -27 3 -29 28 -25 110 20 142 22
142 8 0 -7 9 -13 21 -13 26 0 55 -26 36 -33 -6 -2 -9 -7 -6 -11 3 -3 41 -1 84
5 60 9 80 9 83 1 2 -7 15 -12 28 -12 15 0 24 -6 24 -15 0 -12 10 -14 55 -9 53
7 55 6 55 -17 0 -23 3 -24 55 -21 54 4 55 3 55 -23 0 -14 3 -24 8 -22 4 3 42
8 85 11 l77 7 0 -27 c0 -23 3 -25 25 -20 19 5 25 2 25 -9 0 -13 11 -14 63 -10
34 3 72 8 85 11 12 2 22 0 22 -6 0 -5 11 -10 25 -10 16 0 25 -6 25 -16 0 -13
7 -15 30 -10 17 3 30 1 30 -4 0 -6 11 -10 25 -10 14 0 25 -4 25 -10 0 -5 14
-10 30 -10 17 0 30 -4 30 -10 0 -5 25 -10 55 -10 30 0 55 -4 55 -10 0 -9 23
-7 88 6 16 3 22 0 22 -12 0 -12 7 -15 25 -12 18 4 25 1 25 -10 0 -10 8 -13 30
-10 21 3 30 0 30 -9 0 -10 13 -12 55 -7 40 5 55 3 55 -6 0 -8 16 -11 55 -8 52
3 55 2 55 -21 0 -24 0 -24 85 -17 62 5 85 4 85 -5 0 -7 9 -9 25 -5 19 5 25 2
25 -10 0 -12 6 -14 30 -9 24 5 30 3 30 -10 0 -12 7 -15 33 -10 17 3 53 7 80 9
44 4 47 3 47 -20 0 -20 5 -24 30 -24 17 0 30 -4 30 -10 0 -6 31 -7 80 -3 56 4
80 3 80 -5 0 -7 11 -9 30 -5 23 4 30 2 30 -10 0 -17 11 -17 88 -1 15 3 22 0
22 -11 0 -13 9 -15 55 -11 35 3 55 1 55 -6 0 -7 18 -8 55 -3 46 5 55 4 55 -9
0 -8 6 -14 13 -12 6 3 31 7 55 10 33 5 42 3 42 -9 0 -12 11 -13 55 -9 36 4 55
2 55 -5 0 -6 11 -11 25 -11 14 0 25 -5 25 -11 0 -7 18 -8 55 -4 39 5 55 4 55
-4 0 -9 23 -10 85 -5 65 5 85 4 85 -6 0 -8 8 -10 25 -6 18 5 25 2 25 -9 0 -13
10 -14 55 -9 38 5 55 3 55 -5 0 -6 14 -11 30 -11 17 0 30 -4 30 -10 0 -5 11
-10 24 -10 13 0 26 -5 28 -11 3 -8 33 -7 111 3 93 13 107 13 107 0 0 -10 8
-13 30 -10 20 3 30 0 30 -9 0 -14 36 -18 44 -5 6 11 -97 177 -972 1552 -777
1220 -844 1325 -869 1348 l-24 22 -1485 0 -1484 0 0 -23z"/>
<path d="M47340 31075 c0 -520 2 -945 4 -945 2 0 18 21 35 48 17 26 44 63 61
82 17 19 45 57 63 85 l32 50 5 -464 5 -463 48 68 47 68 0 -160 0 -160 -197
-114 c-109 -62 -246 -141 -305 -174 l-107 -61 -1 -328 c0 -203 -4 -336 -10
-347 -10 -19 -6 -19 100 -14 l111 6 -3 -108 -3 -107 -400 -124 c-681 -212
-2972 -920 -4455 -1378 -778 -240 -1420 -440 -1427 -444 -6 -3 700 -136 1570
-295 3744 -683 6122 -1116 6130 -1116 4 0 7 819 7 1820 l0 1820 29 0 c16 0
740 36 1608 80 868 44 2845 143 4393 221 l2815 141 2216 -403 2216 -403 251
159 252 158 2 176 3 175 323 204 324 203 786 40 c433 21 3615 181 7072 354
3457 173 6881 344 7610 380 729 36 1348 68 1377 71 l52 5 3 102 3 101 48 15
47 15 0 586 0 586 215 135 214 134 1 166 0 166 -427 6 c-236 4 -692 7 -1014 7
-650 0 -739 4 -739 30 0 16 -241 17 -3822 24 -2103 4 -7907 15 -12898 24
-4991 10 -9116 16 -9166 14 -51 -2 -1131 4 -2400 12 -1270 9 -2398 16 -2506
16 l-198 0 0 -945z m510 -1665 c0 -5 -5 -10 -11 -10 -5 0 -7 5 -4 10 3 6 8 10
11 10 2 0 4 -4 4 -10z m-510 -1166 c0 -3 -18 -31 -40 -61 l-40 -56 0 61 0 62
40 0 c22 0 40 -3 40 -6z"/>
<path d="M50 24402 c0 -15 0 -584 0 -1264 0 -1234 0 -1238 -20 -1238 -20 0
-20 -6 -20 -486 0 -481 0 -485 20 -479 19 6 20 2 20 -68 l0 -73 5092 -2845
c2800 -1564 5096 -2845 5103 -2847 6 -1 175 86 376 194 605 326 2300 1244
2356 1276 l53 29 -83 44 c-173 91 -1042 617 -1067 645 -8 9 -1475 897 -3260
1972 -1785 1075 -3789 2283 -4455 2685 -665 401 -1811 1092 -2545 1535 -734
443 -1388 837 -1452 876 -118 71 -118 71 -118 44z"/>
<path d="M20 14888 c0 -1156 2 -2099 4 -2097 8 10 14 4199 5 4199 -5 0 -9
-808 -9 -2102z"/>
<path d="M21340 11034 c-536 -189 -1744 -615 -2685 -945 -940 -331 -1987 -699
-2325 -819 l-615 -217 -432 -1069 c-238 -588 -437 -1070 -443 -1072 -5 -2 -10
-13 -10 -25 0 -40 -24 -88 -47 -93 -14 -4 -23 -14 -23 -25 0 -11 -7 -19 -16
-19 -25 0 -64 -102 -64 -168 0 -54 -2 -58 -27 -68 -25 -10 -43 -47 -178 -382
-82 -205 -153 -372 -156 -372 -13 0 -640 181 -1739 503 -591 173 -1417 415
-1835 538 -1933 565 -6390 1875 -6922 2033 -325 97 -594 176 -597 176 -3 0 -6
508 -6 1129 l0 1129 -112 -60 c-174 -93 -1811 -978 -2483 -1342 l-600 -325 -3
-2376 c-2 -2373 -2 -2376 18 -2370 20 6 20 3 20 -2384 l0 -2391 123 0 c67 0
599 4 1182 10 1207 11 1709 15 8020 70 7206 63 8867 79 8872 83 2 3 -777 1223
-1732 2712 -955 1489 -1734 2709 -1732 2712 3 2 107 -26 233 -63 126 -37 240
-69 254 -71 21 -4 159 97 802 585 427 324 978 743 1225 930 l449 341 4862
-1590 c2674 -874 4867 -1589 4874 -1589 6 0 680 339 1497 754 817 415 1531
776 1586 804 l100 50 -262 -1782 c-144 -979 -263 -1790 -263 -1801 0 -15 13
-25 53 -41 28 -12 1038 -427 2242 -924 1205 -496 2205 -904 2223 -907 25 -4
31 -2 27 8 -2 8 -468 1460 -1034 3228 -567 1767 -1032 3215 -1033 3216 -2 1
-725 207 -1608 458 -3822 1087 -9697 2758 -9717 2765 -19 6 26 71 498 702 474
633 524 702 517 699 -2 -1 -442 -156 -978 -345z m9550 -5169 c0 -3 -40 -25
-90 -50 -49 -25 -90 -43 -90 -40 0 4 166 92 178 94 1 1 2 -1 2 -4z m-16260
-70 c0 -5 -41 -109 -44 -112 -1 -2 -43 9 -92 23 -49 14 -101 28 -116 31 -16 3
-28 8 -28 12 0 3 55 16 123 27 136 24 157 26 157 19z"/>
<path d="M40385 7429 c-297 -27 -1080 -96 -1740 -154 -660 -57 -1219 -107
-1242 -110 l-43 -6 0 -1257 0 -1257 33 55 32 55 3 -120 3 -120 29 50 30 50 0
-245 0 -245 35 55 35 55 0 -125 c1 -112 2 -123 15 -106 13 18 15 -7 15 -220 1
-211 2 -236 15 -214 13 23 14 14 17 -100 l3 -125 30 52 30 53 5 -236 5 -237
28 39 27 39 0 -239 0 -239 33 49 32 49 5 -115 c4 -90 7 -110 15 -90 8 19 11
-3 15 -100 5 -124 5 -125 22 -95 17 30 17 28 18 -90 1 -109 2 -118 15 -95 13
23 14 14 17 -94 l3 -119 28 39 27 39 0 -240 0 -240 28 46 c15 25 37 59 49 75
l22 29 1 -235 c1 -206 2 -233 15 -216 13 17 15 5 17 -105 l3 -124 32 55 33 55
0 -240 0 -240 35 49 35 50 0 -114 c0 -102 1 -112 15 -94 13 17 14 10 15 -73 0
-84 2 -93 18 -93 11 0 24 10 30 22 l11 23 0 -22 1 -23 1328 0 1327 0 1 3590 1
3590 -36 -1 c-20 -1 -279 -23 -576 -50z"/>
</g>
</svg>
